<?xml version="1.0" encoding="UTF-8"?>
<svg id="Layer_1" data-name="Layer 1" xmlns="http://www.w3.org/2000/svg" viewBox="0 0 1003.58 403.61">
  <defs>
    <style>
      .cls-1 {
        fill: #071533;
      }

      .cls-2 {
        fill: #fcb626;
      }
    </style>
  </defs>
  <g>
    <path class="cls-2" d="M251.01,69.27h123.37c6.48,0,11.75,5.26,11.75,11.75v43.42c0,6.48-5.26,11.75-11.75,11.75h-123.37c-6.48,0-11.75-5.26-11.75-11.75v-43.42c0-6.48,5.26-11.75,11.75-11.75Z"/>
    <path class="cls-2" d="M89.47,99.28l48.3-48.7c4.55-4.59,4.52-12.07-.07-16.62L106.87,3.39c-4.59-4.55-12.07-4.52-16.62.07L9.03,85.36l-5.58,5.53C1.13,93.19-.01,96.24,0,99.28c-.01,3.04,1.13,6.09,3.45,8.39l5.59,5.54,81.21,81.89c4.55,4.59,12.03,4.62,16.62.07l30.83-30.58c4.59-4.55,4.62-12.03.07-16.62l-48.3-48.7Z"/>
    <path class="cls-2" d="M51.94,249.6c9.13,0,18.25-.02,27.38,0,5.71.01,7.08,1.11,9.08,6.5,12.19,32.83,34.99,55.09,67.63,67.37,14.83,5.58,30.28,7.49,46.01,6.26,23.99-1.87,45.27-10.66,63.71-26.16,15.11-12.7,26.06-28.35,32.89-46.88,2.07-5.6,4.2-7.09,10.21-7.09,17.3,0,34.59,0,51.89,0,.64,0,1.27,0,1.91.01,5.34.17,8.31,3.63,7.17,8.82-1.37,6.21-2.85,12.42-4.67,18.51-4.66,15.53-11.32,30.17-19.88,43.95-10.64,17.13-24.01,31.79-39.92,44.15-26.42,20.54-56.22,33.1-89.42,37.15-34.29,4.19-67.25-.9-98.76-15.18-18.24-8.26-34.85-19.07-49.31-32.87-22.68-21.63-38.19-47.77-47.04-77.81-1.67-5.69-2.87-11.53-4.06-17.34-1.23-6.01,1.63-9.36,7.81-9.39,9.13-.04,18.25,0,27.38-.01Z"/>
  </g>
  <path class="cls-1" d="M491.41,106.78c0-20.15,15.28-35.7,35.83-35.7,13.12,0,24.74,6.9,30.56,17.31l-17.72,10.28c-2.3-4.73-7.16-7.57-13.12-7.57-8.79,0-15.28,6.35-15.28,15.68s6.49,15.68,15.28,15.68c5.95,0,10.96-2.84,13.12-7.57l17.72,10.14c-5.82,10.55-17.31,17.45-30.56,17.45-20.55,0-35.83-15.55-35.83-35.69Z"/>
  <path class="cls-1" d="M607.23,71.63v22.99c-8.39-1.36-20.29,2.03-20.29,15.41v30.56h-20.28v-67.61h20.28v12.04c2.71-9.06,11.76-13.39,20.29-13.39Z"/>
  <path class="cls-1" d="M650.8,124.36c5.54,0,10.28-2.16,12.98-5.14l16.23,9.33c-6.63,9.2-16.63,13.93-29.48,13.93-23.12,0-37.45-15.55-37.45-35.69s14.6-35.7,35.96-35.7c19.74,0,34.34,15.28,34.34,35.7,0,2.84-.27,5.54-.81,8.11h-48c2.57,7.03,8.79,9.46,16.23,9.46ZM663.23,99.75c-2.16-7.84-8.24-10.69-14.33-10.69-7.71,0-12.84,3.79-14.74,10.69h29.07Z"/>
  <path class="cls-1" d="M764.04,72.98v67.61h-20.28v-6.36c-4.46,5.14-11.09,8.25-20.15,8.25-17.72,0-32.32-15.55-32.32-35.69s14.6-35.7,32.32-35.7c9.06,0,15.68,3.11,20.15,8.25v-6.36h20.28ZM743.76,106.78c0-10.14-6.77-16.5-16.09-16.5s-16.09,6.36-16.09,16.5,6.76,16.49,16.09,16.49,16.09-6.36,16.09-16.49Z"/>
  <path class="cls-1" d="M804.95,92.45v23.93c0,5.82,5,6.36,13.93,5.82v18.39c-26.5,2.7-34.21-5.27-34.21-24.21v-23.93h-10.82v-19.47h10.82v-12.84l20.28-6.08v18.93h13.93v19.47h-13.93Z"/>
  <path class="cls-1" d="M829.7,54.86c0-6.63,5.54-12.17,12.17-12.17s12.17,5.54,12.17,12.17-5.54,12.16-12.17,12.16-12.17-5.54-12.17-12.16ZM831.73,72.98h20.28v67.61h-20.28v-67.61Z"/>
  <path class="cls-1" d="M932.14,72.98l-25.01,67.61h-22.99l-25.01-67.61h22.44l14.06,42.86,14.06-42.86h22.44Z"/>
  <path class="cls-1" d="M970.99,124.36c5.55,0,10.28-2.16,12.98-5.14l16.22,9.33c-6.62,9.2-16.63,13.93-29.47,13.93-23.13,0-37.45-15.55-37.45-35.69s14.6-35.7,35.96-35.7c19.74,0,34.34,15.28,34.34,35.7,0,2.84-.27,5.54-.81,8.11h-48c2.57,7.03,8.79,9.46,16.22,9.46ZM983.43,99.75c-2.16-7.84-8.25-10.69-14.33-10.69-7.71,0-12.84,3.79-14.74,10.69h29.07Z"/>
  <path class="cls-1" d="M590.79,182.2l-21.63,67.61h-18.93l-10.82-36.1-10.82,36.1h-18.93l-21.63-67.61h21.63l9.74,36.24,10.55-36.24h18.93l10.55,36.24,9.73-36.24h21.63Z"/>
  <path class="cls-1" d="M631.04,233.58c5.54,0,10.28-2.16,12.98-5.14l16.22,9.33c-6.62,9.2-16.63,13.93-29.48,13.93-23.12,0-37.45-15.55-37.45-35.69s14.6-35.7,35.97-35.7c19.74,0,34.34,15.28,34.34,35.7,0,2.84-.27,5.54-.81,8.11h-48c2.57,7.03,8.79,9.46,16.23,9.46ZM643.48,208.98c-2.16-7.84-8.25-10.69-14.33-10.69-7.71,0-12.84,3.79-14.74,10.69h29.07Z"/>
  <path class="cls-1" d="M747.83,216.01c0,20.14-14.6,35.69-32.31,35.69-9.06,0-15.68-3.11-20.15-8.25v6.36h-20.29v-94.65h20.29v33.4c4.46-5.14,11.08-8.25,20.15-8.25,17.71,0,32.31,15.55,32.31,35.7ZM727.55,216.01c0-10.14-6.76-16.5-16.09-16.5s-16.09,6.36-16.09,16.5,6.76,16.49,16.09,16.49,16.09-6.36,16.09-16.49Z"/>
  <path class="cls-1" d="M547.25,338.75c0,15.55-13.53,22.17-28.12,22.17-13.52,0-23.8-5.14-29.07-16.09l17.58-10.01c1.76,5.14,5.54,7.98,11.49,7.98,4.87,0,7.3-1.48,7.3-4.19,0-7.44-33.26-3.52-33.26-26.91,0-14.74,12.44-22.17,26.5-22.17,10.95,0,20.68,4.87,26.36,14.47l-17.31,9.33c-1.89-3.52-4.6-5.95-9.06-5.95-3.52,0-5.68,1.35-5.68,3.79,0,7.71,33.26,2.57,33.26,27.58Z"/>
  <path class="cls-1" d="M591.76,342.8c5.54,0,10.28-2.16,12.98-5.14l16.23,9.33c-6.63,9.2-16.63,13.93-29.48,13.93-23.12,0-37.45-15.55-37.45-35.69s14.6-35.7,35.96-35.7c19.74,0,34.34,15.28,34.34,35.7,0,2.84-.27,5.54-.81,8.11h-48c2.57,7.03,8.79,9.46,16.23,9.46ZM604.19,318.2c-2.16-7.84-8.24-10.69-14.33-10.69-7.71,0-12.84,3.79-14.74,10.69h29.07Z"/>
  <path class="cls-1" d="M676.37,290.07v22.99c-8.39-1.36-20.29,2.03-20.29,15.41v30.56h-20.28v-67.61h20.28v12.04c2.71-9.06,11.76-13.39,20.29-13.39Z"/>
  <path class="cls-1" d="M753.93,291.42l-25.01,67.61h-22.99l-25.01-67.61h22.44l14.06,42.86,14.06-42.86h22.44Z"/>
  <path class="cls-1" d="M759.16,273.31c0-6.63,5.54-12.17,12.17-12.17s12.17,5.54,12.17,12.17-5.54,12.17-12.17,12.17-12.17-5.55-12.17-12.17ZM761.18,291.42h20.28v67.61h-20.28v-67.61Z"/>
  <path class="cls-1" d="M792.25,325.23c0-20.15,15.28-35.7,35.83-35.7,13.12,0,24.75,6.9,30.56,17.31l-17.71,10.28c-2.3-4.73-7.17-7.57-13.12-7.57-8.79,0-15.28,6.35-15.28,15.68s6.49,15.68,15.28,15.68c5.95,0,10.95-2.84,13.12-7.57l17.71,10.14c-5.81,10.55-17.31,17.45-30.56,17.45-20.55,0-35.83-15.55-35.83-35.69Z"/>
  <path class="cls-1" d="M900.89,342.8c5.55,0,10.28-2.16,12.98-5.14l16.22,9.33c-6.62,9.2-16.63,13.93-29.47,13.93-23.13,0-37.45-15.55-37.45-35.69s14.6-35.7,35.96-35.7c19.74,0,34.34,15.28,34.34,35.7,0,2.84-.27,5.54-.81,8.11h-48c2.57,7.03,8.79,9.46,16.22,9.46ZM913.33,318.2c-2.16-7.84-8.25-10.69-14.33-10.69-7.71,0-12.84,3.79-14.74,10.69h29.07Z"/>
  <path class="cls-1" d="M996.53,338.75c0,15.55-13.52,22.17-28.12,22.17-13.52,0-23.8-5.14-29.07-16.09l17.58-10.01c1.76,5.14,5.55,7.98,11.49,7.98,4.87,0,7.3-1.48,7.3-4.19,0-7.44-33.26-3.52-33.26-26.91,0-14.74,12.44-22.17,26.5-22.17,10.95,0,20.68,4.87,26.36,14.47l-17.31,9.33c-1.89-3.52-4.6-5.95-9.06-5.95-3.52,0-5.68,1.35-5.68,3.79,0,7.71,33.26,2.57,33.26,27.58Z"/>
</svg>