<?xml version="1.0" encoding="UTF-8"?><svg id="Layer_1" xmlns="http://www.w3.org/2000/svg" viewBox="0 0 556.56 578"><defs><style>.cls-1{fill:#fcb626;}</style></defs><path class="cls-1" d="M354.44,104.79h165.83c8.72,0,15.79,7.08,15.79,15.79v58.37c0,8.72-7.08,15.79-15.79,15.79h-165.83c-8.72,0-15.79-7.08-15.79-15.79v-58.37c0-8.72,7.08-15.79,15.79-15.79Z"/><path class="cls-1" d="M137.3,145.13l64.92-65.46c6.12-6.17,6.08-16.22-.09-22.33l-41.44-41.1c-6.17-6.12-16.22-6.07-22.33.09L29.18,126.41l-7.5,7.44c-3.12,3.09-4.66,7.19-4.64,11.28-.02,4.09,1.52,8.19,4.64,11.28l7.51,7.45,109.16,110.07c6.12,6.17,16.17,6.21,22.33.09l41.44-41.1c6.17-6.12,6.21-16.17.09-22.33l-64.92-65.46Z"/><path class="cls-1" d="M86.85,347.17c12.27,0,24.53-.02,36.8,0,7.68.02,9.52,1.49,12.21,8.73,16.39,44.13,47.04,74.05,90.9,90.56,19.93,7.51,40.71,10.07,61.85,8.42,32.24-2.52,60.85-14.33,85.64-35.17,20.31-17.08,35.03-38.11,44.22-63.01,2.78-7.53,5.65-9.53,13.72-9.54,23.25-.01,46.5,0,69.75,0,.86,0,1.71-.01,2.57.02,7.18.22,11.17,4.88,9.63,11.86-1.84,8.35-3.83,16.69-6.28,24.88-6.26,20.87-15.22,40.56-26.73,59.08-14.31,23.02-32.28,42.73-53.66,59.35-35.51,27.61-75.56,44.49-120.2,49.94-46.09,5.63-90.39-1.21-132.75-20.4-24.52-11.11-46.84-25.63-66.28-44.18-30.48-29.07-51.34-64.21-63.23-104.6-2.25-7.65-3.86-15.49-5.46-23.31-1.65-8.08,2.2-12.58,10.5-12.62,12.27-.05,24.53-.01,36.8-.02Z"/></svg>