<svg id="Group_4" data-name="Group 4" xmlns="http://www.w3.org/2000/svg" width="149.673" height="66" viewBox="0 0 149.673 66">
  <g id="Group_1" data-name="Group 1" transform="translate(0 33.086)">
    <path id="Path_1" data-name="Path 1" d="M12.249,49.69c-.113-.258.8-.944,1.744-.944a1.753,1.753,0,0,1,1.715,1.343L20.74,64.184l5.032-14.094A1.711,1.711,0,0,1,27.4,48.746c.914,0,1.8.686,1.715.944l-6.6,16.723a1.632,1.632,0,0,1-1.829,1.114,1.608,1.608,0,0,1-1.8-1.114Z" transform="translate(-12.24 -48.746)" fill="#147c91"/>
    <path id="Path_2" data-name="Path 2" d="M43.292,60.359h.372v-.287c0-2.087-1.2-3.23-3.4-3.23a4.154,4.154,0,0,0-3.945,2.344c0,.028-1.744,0-1.744-1.372,0-1.315,2-3.287,5.889-3.287s6,2,6,5.488v8.432c0,.144-.514.315-1.029.315-1,0-1.715-.543-1.744-2.2a5.944,5.944,0,0,1-4.945,2.373c-2.944,0-4.688-1.572-4.688-3.917C34.059,61.845,37.09,60.473,43.292,60.359ZM39.433,66.9c2.459,0,4.231-1.543,4.231-3.716V62.13l-.772.029c-4,.143-6.061.886-6.061,2.744C36.832,66.132,37.8,66.9,39.433,66.9Z" transform="translate(-17.007 -50.009)" fill="#147c91"/>
    <path id="Path_3" data-name="Path 3" d="M78.851,54.527c3.973,0,6.6,2.8,6.6,6.918v.227c0,.6-.2.829-.858.829H74.448a4.9,4.9,0,0,0,9.005,1.973c.057-.058,1.486.2,1.486,1.4s-2.116,3.116-5.86,3.116c-4.346,0-7.262-2.887-7.262-7.175A6.966,6.966,0,0,1,78.851,54.527Zm3.859,6.06c-.143-2.373-1.6-3.917-3.888-3.917a4.385,4.385,0,0,0-4.345,3.917Z" transform="translate(-25.258 -50.009)" fill="#147c91"/>
    <path id="Path_4" data-name="Path 4" d="M90.441,55.611c-.057-.171.571-.829,1.486-.829.8,0,1.343.371,1.8,1.6l3.716,9.491,3.288-9.433c.4-1.257,1.029-1.658,1.772-1.658.772,0,1.543.628,1.486.772L97.5,72.678c-.457,1.229-1.086,1.572-1.744,1.572-.8,0-1.544-.63-1.487-.771L96.559,67.9a1.191,1.191,0,0,1-1.2-.8Z" transform="translate(-29.326 -50.065)" fill="#147c91"/>
    <path id="Path_5" data-name="Path 5" d="M116.93,50.552a1.524,1.524,0,0,1,1.572-1.658h9.977c.915,0,1.372.428,1.372,1.2v.172c0,.8-.457,1.229-1.372,1.229h-8.632v5.889h6.4c.943,0,1.372.428,1.372,1.171v.114q0,1.2-1.372,1.2H119.9V66.16c0,.886-.429,1.343-1.286,1.343h-.458c-.8,0-1.229-.543-1.229-1.543Z" transform="translate(-35.115 -48.778)" fill="#147c91"/>
    <path id="Path_6" data-name="Path 6" d="M140.848,54.527a7.232,7.232,0,1,1-7.233,7.2A6.943,6.943,0,0,1,140.848,54.527Zm-.029,12.149a4.928,4.928,0,1,0-4.6-4.946A4.669,4.669,0,0,0,140.819,66.676Z" transform="translate(-38.76 -50.009)" fill="#147c91"/>
    <path id="Path_7" data-name="Path 7" d="M155.458,55.041a1.4,1.4,0,0,1,1.029-.315c.829,0,1.744.457,1.772,2.4a3.48,3.48,0,0,1,3.487-2.6c1.43,0,2.259.685,2.259,1.829a1.407,1.407,0,0,1-.858,1.458,2.661,2.661,0,0,0-1.744-.6c-2.23,0-3.117,2.173-3.117,5.345V67.39c0,1.029-.542,1.343-1.257,1.343h-.315c-.743,0-1.257-.314-1.257-1.343Z" transform="translate(-43.533 -50.009)" fill="#147c91"/>
    <path id="Path_8" data-name="Path 8" d="M170.773,66.636a1.593,1.593,0,0,1-.543-1.286A2.02,2.02,0,0,1,171,63.863a4.783,4.783,0,0,1-3.6-4.573c0-2.888,2.487-5.2,5.889-5.2a6.922,6.922,0,0,1,3.288.828l.743-1.314a1.813,1.813,0,0,1,1.629-1.086,1.544,1.544,0,0,1,1.458,1.2l-2.344,2.43a4.67,4.67,0,0,1,1.2,3.059c0,2.888-2.459,5-5.946,5H172.8a.8.8,0,0,0-.143.486c0,.887,1.314.972,3.716,1.572,1.944.514,4,1.486,4,3.745,0,2.6-2.659,4.2-7.2,4.2-4.631,0-6.775-1.229-6.775-3.8C166.4,68.409,168.286,67.066,170.773,66.636Zm2.458,5.6c2.774,0,4.4-.771,4.4-2.144,0-1.4-2.2-1.686-4.231-2.2-2.344.142-4.288.971-4.288,2.43C169.115,71.554,170.515,72.239,173.231,72.239Zm3.288-13.007a3.041,3.041,0,0,0-3.259-3.116,3,3,0,0,0-3.174,3.116,3.218,3.218,0,0,0,6.433,0Z" transform="translate(-45.924 -49.57)" fill="#147c91"/>
    <path id="Path_9" data-name="Path 9" d="M192.566,54.527c3.974,0,6.6,2.8,6.6,6.918v.227c0,.6-.2.829-.858.829H188.164a4.9,4.9,0,0,0,9.005,1.973c.057-.058,1.486.2,1.486,1.4s-2.116,3.116-5.86,3.116c-4.345,0-7.261-2.887-7.261-7.175A6.966,6.966,0,0,1,192.566,54.527Zm3.859,6.06c-.143-2.373-1.6-3.917-3.888-3.917a4.384,4.384,0,0,0-4.344,3.917Z" transform="translate(-50.105 -50.009)" fill="#147c91"/>
  </g>
  <g id="Group_2" data-name="Group 2" transform="translate(33.769)">
    <path id="Path_10" data-name="Path 10" d="M69.666,25.978c-2.123.941-12.224,5.573-12.593-.025-.191-2.9,4-3.17,6.138-3.2-2.851-3.1-7.509-8.621-5.61-13.307.984-2.426,2.637-2.384,4.878-.993,5.231,3.246,5.678,12.3,5.575,17.757,2.026-.679,5.072-2.193,4.742-4.806a4.872,4.872,0,0,1-4.129,3.876c.4-5.518-.962-18.919-9.391-18.876-3.076.016-3.57,4.448-3.049,6.955.712,3.43,3.169,6.6,5.658,8.972-3.459-.369-9.154,3.624-4.945,6.992,2.56,2.048,7.634-.423,10.526-1.965a7.359,7.359,0,0,0-3.3,4.338c.847-1.518,3.014-3.738,4.776-4.264a4,4,0,0,1,1.286-.087,3.231,3.231,0,0,0,1.758-.377C73.711,26.026,72.112,24.8,69.666,25.978Z" transform="translate(-55.451 -6.409)" fill="#f78040"/>
    <path id="Path_11" data-name="Path 11" d="M72.643,25.525c2.877-3.365,6.736-8.358,6.555-13-.288-7.407-6.807.3-7.716,3.342,1.411-2.439,6.472-8.776,6.372-2.6C77.79,17.213,74.479,22.111,72.643,25.525Z" transform="translate(-58.953 -7.062)" fill="#f78040"/>
  </g>
  <g id="Group_3" data-name="Group 3" transform="translate(52.442 60.26)">
    <path id="Path_12" data-name="Path 12" d="M79.344,83.61h.8l.789,2.366.789-2.366h.8v5.579h-.757v-3.8l-.829,2.455h-.023l-.829-2.455v3.8h-.749Z" transform="translate(-79.344 -83.537)" fill="#f78040"/>
    <path id="Path_13" data-name="Path 13" d="M86.01,83.61h2.064v.741H86.8v1.658h1.14v.741H86.8v1.7h1.3v.741H86.01Z" transform="translate(-80.801 -83.537)" fill="#f78040"/>
    <path id="Path_14" data-name="Path 14" d="M91.083,83.61h.836c1.18,0,1.9.908,1.9,2.7v.175c0,1.794-.717,2.7-1.9,2.7h-.836Zm.908,4.862c.574,0,1.028-.535,1.028-1.986v-.175c0-1.45-.463-1.985-1.036-1.985h-.112v4.146Z" transform="translate(-81.909 -83.537)" fill="#f78040"/>
    <path id="Path_15" data-name="Path 15" d="M97.064,83.61h.781v5.579h-.781Z" transform="translate(-83.216 -83.537)" fill="#f78040"/>
    <path id="Path_16" data-name="Path 16" d="M100.544,86.475V86.3c0-1.93.717-2.742,1.587-2.742a1.238,1.238,0,0,1,.613.135v.814a1.019,1.019,0,0,0-.542-.184c-.486,0-.86.518-.86,1.969v.191c0,1.507.374,1.969.868,1.969a1.075,1.075,0,0,0,.551-.176v.774a1.245,1.245,0,0,1-.678.167C101.214,89.218,100.544,88.388,100.544,86.475Z" transform="translate(-83.976 -83.526)" fill="#f78040"/>
    <path id="Path_17" data-name="Path 17" d="M106.593,83.588h.837l1.108,5.6h-.789l-.224-1.243h-1.052l-.224,1.243h-.765Zm.814,3.643L107,84.992l-.406,2.24Z" transform="translate(-85.056 -83.533)" fill="#f78040"/>
    <path id="Path_18" data-name="Path 18" d="M111.649,83.61h.789v4.838h1.14v.741h-1.93Z" transform="translate(-86.403 -83.537)" fill="#f78040"/>
    <path id="Path_19" data-name="Path 19" d="M119.612,86.475V86.3c0-1.93.717-2.742,1.586-2.742a1.238,1.238,0,0,1,.613.135v.814a1.019,1.019,0,0,0-.542-.184c-.486,0-.86.518-.86,1.969v.191c0,1.507.374,1.969.868,1.969a1.075,1.075,0,0,0,.551-.176v.774a1.245,1.245,0,0,1-.678.167C120.281,89.218,119.612,88.388,119.612,86.475Z" transform="translate(-88.143 -83.526)" fill="#f78040"/>
    <path id="Path_20" data-name="Path 20" d="M124.889,83.61h2.064v.741h-1.275v1.658h1.14v.741h-1.14v1.7h1.3v.741h-2.088Z" transform="translate(-89.296 -83.537)" fill="#f78040"/>
    <path id="Path_21" data-name="Path 21" d="M129.962,83.61h.749l1.212,3.378V83.61h.765v5.579h-.71l-1.251-3.507v3.507h-.765Z" transform="translate(-90.404 -83.537)" fill="#f78040"/>
    <path id="Path_22" data-name="Path 22" d="M136.506,84.351h-.757V83.61h2.288v.741h-.749v4.838h-.782Z" transform="translate(-91.669 -83.537)" fill="#f78040"/>
    <path id="Path_23" data-name="Path 23" d="M140.985,83.61h2.065v.741h-1.275v1.658h1.14v.741h-1.14v1.7h1.3v.741h-2.089Z" transform="translate(-92.813 -83.537)" fill="#f78040"/>
    <path id="Path_24" data-name="Path 24" d="M146.058,83.61h.909a1.56,1.56,0,0,1,1.69,1.737V85.4a1.631,1.631,0,0,1-.75,1.491l.846,2.3h-.846l-.749-2.041c-.032,0-.072.009-.1.009h-.207v2.032h-.789Zm.925,2.837c.526,0,.884-.319.884-1.035v-.048c0-.765-.382-1.02-.908-1.02h-.112v2.1Z" transform="translate(-93.921 -83.537)" fill="#f78040"/>
    <path id="Path_25" data-name="Path 25" d="M154.908,87.782v-.048a2.193,2.193,0,0,1,.869-1.69,2.626,2.626,0,0,1-.495-1.315v-.048a1.1,1.1,0,0,1,1.093-1.164,1.054,1.054,0,0,1,1.052,1.14v.056a1.934,1.934,0,0,1-.813,1.507l.621,1.163a6.791,6.791,0,0,0,.159-.892l.614.1a5.4,5.4,0,0,1-.359,1.467l.486.845-.574.352-.319-.6a1.248,1.248,0,0,1-1.068.582A1.344,1.344,0,0,1,154.908,87.782Zm1.993.343-.8-1.522a1.61,1.61,0,0,0-.438,1.076v.055c0,.478.239.821.6.821A.74.74,0,0,0,156.9,88.125Zm-.152-3.4v-.048c0-.3-.152-.526-.391-.526s-.4.223-.4.51v.055a2.154,2.154,0,0,0,.335.965A1.227,1.227,0,0,0,156.749,84.729Z" transform="translate(-95.855 -83.517)" fill="#f78040"/>
    <path id="Path_26" data-name="Path 26" d="M164.615,83.61h.788v2.4h1.109v-2.4h.781v5.579h-.781V86.758H165.4v2.431h-.788Z" transform="translate(-97.976 -83.537)" fill="#f78040"/>
    <path id="Path_27" data-name="Path 27" d="M170.484,86.5v-.24c0-1.882.589-2.742,1.435-2.742s1.435.86,1.435,2.742v.24c0,1.88-.589,2.742-1.435,2.742S170.484,88.379,170.484,86.5Zm2.073,0v-.24c0-1.443-.263-2.025-.638-2.025s-.638.582-.638,2.025v.24c0,1.443.263,2.024.638,2.024S172.557,87.942,172.557,86.5Z" transform="translate(-99.258 -83.517)" fill="#f78040"/>
    <path id="Path_28" data-name="Path 28" d="M176.362,88.974v-.829a1.779,1.779,0,0,0,.909.327.54.54,0,0,0,.589-.574v-.016c0-.319-.1-.549-.613-1.164-.685-.821-.932-1.171-.932-1.8V84.9a1.273,1.273,0,0,1,1.275-1.363,1.725,1.725,0,0,1,.861.2v.829a1.434,1.434,0,0,0-.774-.272.546.546,0,0,0-.574.567v.016c0,.311.1.479.613,1.084.742.878.932,1.252.932,1.882v.016a1.3,1.3,0,0,1-1.307,1.371A2.109,2.109,0,0,1,176.362,88.974Z" transform="translate(-100.532 -83.522)" fill="#f78040"/>
    <path id="Path_29" data-name="Path 29" d="M181.611,83.61h.813a1.634,1.634,0,0,1,1.747,1.841v.016a1.683,1.683,0,0,1-1.675,1.882h-.1v1.84h-.789Zm.893,3.013c.526-.016.877-.391.877-1.132v-.016c0-.774-.335-1.14-.861-1.14h-.12v2.288Z" transform="translate(-101.69 -83.537)" fill="#f78040"/>
    <path id="Path_30" data-name="Path 30" d="M187.245,83.61h.781v5.579h-.781Z" transform="translate(-102.921 -83.537)" fill="#f78040"/>
    <path id="Path_31" data-name="Path 31" d="M191.341,84.351h-.757V83.61h2.287v.741h-.749v4.838h-.781Z" transform="translate(-103.65 -83.537)" fill="#f78040"/>
    <path id="Path_32" data-name="Path 32" d="M196.234,83.588h.837l1.108,5.6h-.789l-.223-1.243h-1.052l-.223,1.243h-.765Zm.813,3.643-.406-2.24-.407,2.24Z" transform="translate(-104.643 -83.533)" fill="#f78040"/>
    <path id="Path_33" data-name="Path 33" d="M201.291,83.61h.789v4.838h1.14v.741h-1.93Z" transform="translate(-105.99 -83.537)" fill="#f78040"/>
  </g>
  <path id="Path_34" data-name="Path 34" d="M56.147,39.348c-.718,17.17-1.6,22.717,9.3,35.711.253.3,1.461.508.785,1.257-.86.953-1.58-1.049-1.3-.606C51.33,63.667,53.767,54.7,56.147,39.348Z" transform="translate(-21.428 -13.606)" fill="#147c91"/>
  <path id="Path_35" data-name="Path 35" d="M70.867,35.205c-8.14,20.017-7.47,24.442,1.422,39.366.2.338,1.35.754.554,1.375-1.012.789-1.937-1.879-1.739-1.394C59.8,60.329,61.887,50.468,70.867,35.205Z" transform="translate(-23.41 -12.701)" fill="#147c91"/>
</svg>
